# Blender v2.92.0 OBJ File: 'bucket.blend'
# www.blender.org
mtllib bucket.mtl
o Bucket_Mesh.002
v 0.030000 -0.040000 0.020000
v 0.030000 0.040000 0.020000
v 0.030000 -0.040000 0.000000
v 0.030000 0.040000 0.000000
v 0.029886 -0.040000 -0.002615
v 0.029886 0.040000 -0.002615
v 0.029544 -0.040000 -0.005209
v 0.029544 0.040000 -0.005209
v 0.028978 -0.040000 -0.007765
v 0.028978 0.040000 -0.007765
v 0.028191 -0.040000 -0.010261
v 0.028191 0.040000 -0.010261
v 0.027189 -0.040000 -0.012679
v 0.027189 0.040000 -0.012679
v 0.025981 -0.040000 -0.015000
v 0.025981 0.040000 -0.015000
v 0.024575 -0.040000 -0.017207
v 0.024575 0.040000 -0.017207
v 0.022981 -0.040000 -0.019284
v 0.022981 0.040000 -0.019284
v 0.021213 -0.040000 -0.021213
v 0.021213 0.040000 -0.021213
v 0.019284 -0.040000 -0.022981
v 0.019284 0.040000 -0.022981
v 0.017207 -0.040000 -0.024575
v 0.017207 0.040000 -0.024575
v 0.015000 -0.040000 -0.025981
v 0.015000 0.040000 -0.025981
v 0.012679 -0.040000 -0.027189
v 0.012679 0.040000 -0.027189
v 0.010261 -0.040000 -0.028191
v 0.010261 0.040000 -0.028191
v 0.007765 -0.040000 -0.028978
v 0.007765 0.040000 -0.028978
v 0.005209 -0.040000 -0.029544
v 0.005209 0.040000 -0.029544
v 0.002615 -0.040000 -0.029886
v 0.002615 0.040000 -0.029886
v 0.000000 -0.040000 -0.030000
v 0.000000 0.040000 -0.030000
v -0.002615 -0.040000 -0.029886
v -0.002615 0.040000 -0.029886
v -0.005209 -0.040000 -0.029544
v -0.005209 0.040000 -0.029544
v -0.007765 -0.040000 -0.028978
v -0.007765 0.040000 -0.028978
v -0.010261 -0.040000 -0.028191
v -0.010261 0.040000 -0.028191
v -0.012679 -0.040000 -0.027189
v -0.012679 0.040000 -0.027189
v -0.015000 -0.040000 -0.025981
v -0.015000 0.040000 -0.025981
v -0.017207 -0.040000 -0.024575
v -0.017207 0.040000 -0.024575
v -0.019284 -0.040000 -0.022981
v -0.019284 0.040000 -0.022981
v -0.021213 -0.040000 -0.021213
v -0.021213 0.040000 -0.021213
v -0.071213 -0.040000 0.020000
v -0.071213 0.040000 0.020000
v 0.030707 -0.040707 0.020000
v 0.030707 0.039293 0.020000
v 0.030712 -0.040702 -0.000016
v 0.030712 0.039298 -0.000016
v 0.030600 -0.040697 -0.002677
v 0.030600 0.039303 -0.002677
v 0.030250 -0.040697 -0.005334
v 0.030250 0.039303 -0.005334
v 0.029670 -0.040697 -0.007950
v 0.029670 0.039303 -0.007950
v 0.028864 -0.040697 -0.010506
v 0.028864 0.039303 -0.010506
v 0.027839 -0.040697 -0.012981
v 0.027839 0.039303 -0.012981
v 0.026601 -0.040697 -0.015358
v 0.026601 0.039303 -0.015358
v 0.025162 -0.040697 -0.017618
v 0.025162 0.039303 -0.017618
v 0.023530 -0.040697 -0.019744
v 0.023530 0.039303 -0.019744
v 0.021720 -0.040697 -0.021720
v 0.021720 0.039303 -0.021720
v 0.019744 -0.040697 -0.023530
v 0.019744 0.039303 -0.023530
v 0.017618 -0.040697 -0.025162
v 0.017618 0.039303 -0.025162
v 0.015358 -0.040697 -0.026601
v 0.015358 0.039303 -0.026601
v 0.012981 -0.040697 -0.027839
v 0.012981 0.039303 -0.027839
v 0.010506 -0.040697 -0.028864
v 0.010506 0.039303 -0.028864
v 0.007950 -0.040697 -0.029670
v 0.007950 0.039303 -0.029670
v 0.005334 -0.040697 -0.030250
v 0.005334 0.039303 -0.030250
v 0.002677 -0.040697 -0.030600
v 0.002677 0.039303 -0.030600
v 0.000000 -0.040697 -0.030717
v 0.000000 0.039303 -0.030717
v -0.002677 -0.040697 -0.030600
v -0.002677 0.039303 -0.030600
v -0.005334 -0.040697 -0.030250
v -0.005334 0.039303 -0.030250
v -0.007950 -0.040697 -0.029670
v -0.007950 0.039303 -0.029670
v -0.010506 -0.040697 -0.028864
v -0.010506 0.039303 -0.028864
v -0.012981 -0.040697 -0.027839
v -0.012981 0.039303 -0.027839
v -0.015358 -0.040697 -0.026601
v -0.015358 0.039303 -0.026601
v -0.017618 -0.040697 -0.025162
v -0.017618 0.039303 -0.025162
v -0.019744 -0.040697 -0.023530
v -0.019744 0.039303 -0.023530
v -0.021681 -0.040701 -0.021751
v -0.021681 0.039299 -0.021751
v -0.071796 -0.040402 0.019293
v -0.071796 0.039598 0.019293
vn -1.0000 0.0000 0.0000
vn -0.9990 0.0000 0.0436
vn -0.9914 0.0000 0.1305
vn -0.9763 0.0000 0.2164
vn -0.9537 0.0000 0.3007
vn -0.9239 0.0000 0.3827
vn -0.8870 0.0000 0.4617
vn -0.8434 0.0000 0.5373
vn -0.7934 0.0000 0.6088
vn -0.7373 0.0000 0.6756
vn -0.6756 0.0000 0.7373
vn -0.6088 0.0000 0.7934
vn -0.5373 0.0000 0.8434
vn -0.4617 0.0000 0.8870
vn -0.3827 0.0000 0.9239
vn -0.3007 0.0000 0.9537
vn -0.2164 0.0000 0.9763
vn -0.1305 0.0000 0.9914
vn -0.0436 0.0000 0.9990
vn 0.0436 0.0000 0.9990
vn 0.1305 0.0000 0.9914
vn 0.2164 0.0000 0.9763
vn 0.3007 0.0000 0.9537
vn 0.3827 0.0000 0.9239
vn 0.4617 0.0000 0.8870
vn 0.5373 0.0000 0.8434
vn 0.6088 0.0000 0.7934
vn 0.6756 0.0000 0.7373
vn 0.6360 0.0000 0.7717
vn 0.0000 1.0000 0.0000
vn 1.0000 0.0000 0.0002
vn 0.9991 0.0000 -0.0420
vn 0.9914 0.0000 -0.1305
vn 0.9763 0.0000 -0.2164
vn 0.9537 0.0000 -0.3007
vn 0.9239 0.0000 -0.3827
vn 0.8870 0.0000 -0.4618
vn 0.8434 0.0000 -0.5373
vn 0.7933 0.0000 -0.6088
vn 0.7373 0.0000 -0.6756
vn 0.6756 0.0000 -0.7373
vn 0.6088 0.0000 -0.7933
vn 0.5373 0.0000 -0.8434
vn 0.4618 0.0000 -0.8870
vn 0.3827 0.0000 -0.9239
vn 0.3007 0.0000 -0.9537
vn 0.2164 0.0000 -0.9763
vn 0.1305 0.0000 -0.9914
vn 0.0436 0.0000 -0.9990
vn -0.0436 0.0000 -0.9990
vn -0.1305 0.0000 -0.9914
vn -0.2164 0.0000 -0.9763
vn -0.3007 0.0000 -0.9537
vn -0.3827 0.0000 -0.9239
vn -0.4618 0.0000 -0.8870
vn -0.5373 0.0000 -0.8434
vn -0.6088 0.0000 -0.7933
vn -0.6765 0.0000 -0.7364
vn -0.6336 0.0000 -0.7736
vn -0.0018 -1.0000 0.0021
vn 0.0000 0.0000 1.0000
vn -0.0037 -0.5377 0.8431
vn -0.7717 0.0000 0.6360
usemtl None
s off
f 1//1 2//1 4//1 3//1
f 3//2 4//2 6//2 5//2
f 5//3 6//3 8//3 7//3
f 7//4 8//4 10//4 9//4
f 9//5 10//5 12//5 11//5
f 11//6 12//6 14//6 13//6
f 13//7 14//7 16//7 15//7
f 15//8 16//8 18//8 17//8
f 17//9 18//9 20//9 19//9
f 19//10 20//10 22//10 21//10
f 21//11 22//11 24//11 23//11
f 23//12 24//12 26//12 25//12
f 25//13 26//13 28//13 27//13
f 27//14 28//14 30//14 29//14
f 29//15 30//15 32//15 31//15
f 31//16 32//16 34//16 33//16
f 33//17 34//17 36//17 35//17
f 35//18 36//18 38//18 37//18
f 37//19 38//19 40//19 39//19
f 39//20 40//20 42//20 41//20
f 41//21 42//21 44//21 43//21
f 43//22 44//22 46//22 45//22
f 45//23 46//23 48//23 47//23
f 47//24 48//24 50//24 49//24
f 49//25 50//25 52//25 51//25
f 51//26 52//26 54//26 53//26
f 53//27 54//27 56//27 55//27
f 55//28 56//28 58//28 57//28
f 57//29 58//29 60//29 59//29
f 1//30 3//30 5//30 7//30 9//30 11//30 13//30 15//30 17//30 19//30 21//30 23//30 25//30 27//30 29//30 31//30 33//30 35//30 37//30 39//30 41//30 43//30 45//30 47//30 49//30 51//30 53//30 55//30 57//30 59//30
f 2//30 4//30 6//30 8//30 10//30 12//30 14//30 16//30 18//30 20//30 22//30 24//30 26//30 28//30 30//30 32//30 34//30 36//30 38//30 40//30 42//30 44//30 46//30 48//30 50//30 52//30 54//30 56//30 58//30 60//30
f 61//31 63//31 64//31 62//31
f 63//32 65//32 66//32 64//32
f 65//33 67//33 68//33 66//33
f 67//34 69//34 70//34 68//34
f 69//35 71//35 72//35 70//35
f 71//36 73//36 74//36 72//36
f 73//37 75//37 76//37 74//37
f 75//38 77//38 78//38 76//38
f 77//39 79//39 80//39 78//39
f 79//40 81//40 82//40 80//40
f 81//41 83//41 84//41 82//41
f 83//42 85//42 86//42 84//42
f 85//43 87//43 88//43 86//43
f 87//44 89//44 90//44 88//44
f 89//45 91//45 92//45 90//45
f 91//46 93//46 94//46 92//46
f 93//47 95//47 96//47 94//47
f 95//48 97//48 98//48 96//48
f 97//49 99//49 100//49 98//49
f 99//50 101//50 102//50 100//50
f 101//51 103//51 104//51 102//51
f 103//52 105//52 106//52 104//52
f 105//53 107//53 108//53 106//53
f 107//54 109//54 110//54 108//54
f 109//55 111//55 112//55 110//55
f 111//56 113//56 114//56 112//56
f 113//57 115//57 116//57 114//57
f 115//58 117//58 118//58 116//58
f 117//59 119//59 120//59 118//59
f 61//60 119//60 117//60 115//60 113//60 111//60 109//60 107//60 105//60 103//60 101//60 99//60 97//60 95//60 93//60 91//60 89//60 87//60 85//60 83//60 81//60 79//60 77//60 75//60 73//60 71//60 69//60 67//60 65//60 63//60
f 62//60 120//60 118//60 116//60 114//60 112//60 110//60 108//60 106//60 104//60 102//60 100//60 98//60 96//60 94//60 92//60 90//60 88//60 86//60 84//60 82//60 80//60 78//60 76//60 74//60 72//60 70//60 68//60 66//60 64//60
f 2//61 1//61 61//61 62//61
f 1//62 59//62 119//62 61//62
f 2//62 60//62 120//62 62//62
f 59//63 60//63 120//63 119//63
